<mxfile host="Electron" modified="2024-03-05T18:40:53.333Z" agent="Mozilla/5.0 (Windows NT 10.0; Win64; x64) AppleWebKit/537.36 (KHTML, like Gecko) draw.io/23.1.5 Chrome/120.0.6099.109 Electron/28.1.0 Safari/537.36" etag="3xhDXWkZ3ysA_yNnjWuw" version="23.1.5" type="device">
  <diagram name="Страница — 1" id="tTTT7lDbj0AzXVJ5Z_Ju">
    <mxGraphModel dx="1247" dy="734" grid="1" gridSize="10" guides="1" tooltips="1" connect="1" arrows="1" fold="1" page="1" pageScale="1" pageWidth="827" pageHeight="1169" math="0" shadow="0">
      <root>
        <mxCell id="0" />
        <mxCell id="1" parent="0" />
        <mxCell id="eu__VUVs-O8cIbxZYUX1-4" style="edgeStyle=orthogonalEdgeStyle;rounded=0;orthogonalLoop=1;jettySize=auto;html=1;exitX=0.5;exitY=1;exitDx=0;exitDy=0;" parent="1" source="eu__VUVs-O8cIbxZYUX1-1" edge="1">
          <mxGeometry relative="1" as="geometry">
            <mxPoint x="585" y="250" as="targetPoint" />
          </mxGeometry>
        </mxCell>
        <mxCell id="eu__VUVs-O8cIbxZYUX1-1" value="&lt;font face=&quot;Times New Roman&quot;&gt;&lt;font style=&quot;font-size: 14px;&quot;&gt;&lt;br&gt;Исток&lt;br&gt;(Начало&lt;br&gt;рассмотрения &lt;br&gt;процесса)&lt;/font&gt;&lt;br&gt;&lt;/font&gt;" style="ellipse;whiteSpace=wrap;html=1;aspect=fixed;" parent="1" vertex="1">
          <mxGeometry x="520" y="30" width="130" height="130" as="geometry" />
        </mxCell>
        <mxCell id="eu__VUVs-O8cIbxZYUX1-2" value="" style="triangle;whiteSpace=wrap;html=1;direction=south;strokeColor=default;gradientColor=none;fillColor=#000000;" parent="1" vertex="1">
          <mxGeometry x="570" y="40" width="29.33" height="20" as="geometry" />
        </mxCell>
        <mxCell id="eu__VUVs-O8cIbxZYUX1-56" style="edgeStyle=orthogonalEdgeStyle;rounded=0;orthogonalLoop=1;jettySize=auto;html=1;exitX=0;exitY=1;exitDx=0;exitDy=0;" parent="1" source="eu__VUVs-O8cIbxZYUX1-5" edge="1">
          <mxGeometry relative="1" as="geometry">
            <mxPoint x="520" y="470" as="targetPoint" />
          </mxGeometry>
        </mxCell>
        <mxCell id="eu__VUVs-O8cIbxZYUX1-58" style="edgeStyle=orthogonalEdgeStyle;rounded=0;orthogonalLoop=1;jettySize=auto;html=1;exitX=1;exitY=1;exitDx=0;exitDy=0;" parent="1" source="eu__VUVs-O8cIbxZYUX1-5" edge="1">
          <mxGeometry relative="1" as="geometry">
            <mxPoint x="650" y="470" as="targetPoint" />
          </mxGeometry>
        </mxCell>
        <mxCell id="eu__VUVs-O8cIbxZYUX1-5" value="&lt;font face=&quot;Times New Roman&quot; style=&quot;font-size: 14px;&quot;&gt;Субъект ожидает на станции метро&lt;/font&gt;" style="ellipse;whiteSpace=wrap;html=1;aspect=fixed;" parent="1" vertex="1">
          <mxGeometry x="520" y="250" width="130" height="130" as="geometry" />
        </mxCell>
        <mxCell id="eu__VUVs-O8cIbxZYUX1-6" value="" style="ellipse;whiteSpace=wrap;html=1;aspect=fixed;fillColor=#000000;" parent="1" vertex="1">
          <mxGeometry x="570" y="260" width="30" height="30" as="geometry" />
        </mxCell>
        <mxCell id="eu__VUVs-O8cIbxZYUX1-59" style="edgeStyle=orthogonalEdgeStyle;rounded=0;orthogonalLoop=1;jettySize=auto;html=1;exitX=0;exitY=1;exitDx=0;exitDy=0;" parent="1" source="eu__VUVs-O8cIbxZYUX1-7" edge="1">
          <mxGeometry relative="1" as="geometry">
            <mxPoint x="700" y="470" as="targetPoint" />
          </mxGeometry>
        </mxCell>
        <mxCell id="eu__VUVs-O8cIbxZYUX1-7" value="&lt;font style=&quot;font-size: 14px;&quot; face=&quot;Times New Roman&quot;&gt;Поезд едет не в нужном направлении&lt;/font&gt;" style="ellipse;whiteSpace=wrap;html=1;aspect=fixed;" parent="1" vertex="1">
          <mxGeometry x="697" y="250" width="130" height="130" as="geometry" />
        </mxCell>
        <mxCell id="eu__VUVs-O8cIbxZYUX1-55" style="edgeStyle=orthogonalEdgeStyle;rounded=0;orthogonalLoop=1;jettySize=auto;html=1;exitX=1;exitY=1;exitDx=0;exitDy=0;" parent="1" source="eu__VUVs-O8cIbxZYUX1-8" edge="1">
          <mxGeometry relative="1" as="geometry">
            <mxPoint x="470" y="470" as="targetPoint" />
          </mxGeometry>
        </mxCell>
        <mxCell id="eu__VUVs-O8cIbxZYUX1-8" value="&lt;font style=&quot;font-size: 14px;&quot; face=&quot;Times New Roman&quot;&gt;Поезд едет в нужном направлении&lt;/font&gt;" style="ellipse;whiteSpace=wrap;html=1;aspect=fixed;" parent="1" vertex="1">
          <mxGeometry x="340" y="250" width="130" height="130" as="geometry" />
        </mxCell>
        <mxCell id="eu__VUVs-O8cIbxZYUX1-10" value="" style="endArrow=none;html=1;rounded=0;strokeWidth=4;" parent="1" edge="1">
          <mxGeometry width="50" height="50" relative="1" as="geometry">
            <mxPoint x="440" y="470" as="sourcePoint" />
            <mxPoint x="550" y="470" as="targetPoint" />
            <Array as="points" />
          </mxGeometry>
        </mxCell>
        <mxCell id="eu__VUVs-O8cIbxZYUX1-15" style="edgeStyle=orthogonalEdgeStyle;rounded=0;orthogonalLoop=1;jettySize=auto;html=1;entryX=0.5;entryY=0;entryDx=0;entryDy=0;" parent="1" edge="1">
          <mxGeometry relative="1" as="geometry">
            <mxPoint x="494.17999999999995" y="540" as="targetPoint" />
            <mxPoint x="494.17999999999995" y="470" as="sourcePoint" />
          </mxGeometry>
        </mxCell>
        <mxCell id="eu__VUVs-O8cIbxZYUX1-17" style="edgeStyle=orthogonalEdgeStyle;rounded=0;orthogonalLoop=1;jettySize=auto;html=1;exitX=0.5;exitY=1;exitDx=0;exitDy=0;" parent="1" source="eu__VUVs-O8cIbxZYUX1-14" edge="1">
          <mxGeometry relative="1" as="geometry">
            <mxPoint x="495" y="930" as="targetPoint" />
          </mxGeometry>
        </mxCell>
        <mxCell id="eu__VUVs-O8cIbxZYUX1-14" value="&lt;font style=&quot;font-size: 14px;&quot; face=&quot;Times New Roman&quot;&gt;Субъект заходит в вагон&lt;/font&gt;" style="ellipse;whiteSpace=wrap;html=1;aspect=fixed;" parent="1" vertex="1">
          <mxGeometry x="430" y="750" width="130" height="130" as="geometry" />
        </mxCell>
        <mxCell id="eu__VUVs-O8cIbxZYUX1-16" value="" style="rounded=0;whiteSpace=wrap;html=1;fillColor=#000000;" parent="1" vertex="1">
          <mxGeometry x="480" y="760" width="30" height="30" as="geometry" />
        </mxCell>
        <mxCell id="eu__VUVs-O8cIbxZYUX1-31" style="edgeStyle=orthogonalEdgeStyle;rounded=0;orthogonalLoop=1;jettySize=auto;html=1;exitX=0;exitY=1;exitDx=0;exitDy=0;" parent="1" source="eu__VUVs-O8cIbxZYUX1-19" edge="1">
          <mxGeometry relative="1" as="geometry">
            <mxPoint x="400" y="1120" as="targetPoint" />
          </mxGeometry>
        </mxCell>
        <mxCell id="eu__VUVs-O8cIbxZYUX1-33" style="edgeStyle=orthogonalEdgeStyle;rounded=0;orthogonalLoop=1;jettySize=auto;html=1;exitX=1;exitY=1;exitDx=0;exitDy=0;" parent="1" source="eu__VUVs-O8cIbxZYUX1-19" edge="1">
          <mxGeometry relative="1" as="geometry">
            <mxPoint x="590" y="1120" as="targetPoint" />
          </mxGeometry>
        </mxCell>
        <mxCell id="eu__VUVs-O8cIbxZYUX1-19" value="&lt;font style=&quot;font-size: 14px;&quot; face=&quot;Times New Roman&quot;&gt;Субъект осматривает вагон&lt;/font&gt;" style="ellipse;whiteSpace=wrap;html=1;aspect=fixed;" parent="1" vertex="1">
          <mxGeometry x="430" y="930" width="130" height="130" as="geometry" />
        </mxCell>
        <mxCell id="eu__VUVs-O8cIbxZYUX1-20" value="" style="rounded=0;whiteSpace=wrap;html=1;fillColor=#000000;" parent="1" vertex="1">
          <mxGeometry x="480" y="940" width="30" height="30" as="geometry" />
        </mxCell>
        <mxCell id="eu__VUVs-O8cIbxZYUX1-35" style="edgeStyle=orthogonalEdgeStyle;rounded=0;orthogonalLoop=1;jettySize=auto;html=1;exitX=1;exitY=1;exitDx=0;exitDy=0;" parent="1" source="eu__VUVs-O8cIbxZYUX1-21" edge="1">
          <mxGeometry relative="1" as="geometry">
            <mxPoint x="370" y="1120" as="targetPoint" />
          </mxGeometry>
        </mxCell>
        <mxCell id="eu__VUVs-O8cIbxZYUX1-21" value="&lt;font face=&quot;Times New Roman&quot;&gt;&lt;span style=&quot;font-size: 14px;&quot;&gt;В вагоне есть свободное место&lt;/span&gt;&lt;/font&gt;" style="ellipse;whiteSpace=wrap;html=1;aspect=fixed;" parent="1" vertex="1">
          <mxGeometry x="220" y="930" width="130" height="130" as="geometry" />
        </mxCell>
        <mxCell id="eu__VUVs-O8cIbxZYUX1-34" style="edgeStyle=orthogonalEdgeStyle;rounded=0;orthogonalLoop=1;jettySize=auto;html=1;exitX=0;exitY=1;exitDx=0;exitDy=0;" parent="1" source="eu__VUVs-O8cIbxZYUX1-22" edge="1">
          <mxGeometry relative="1" as="geometry">
            <mxPoint x="620" y="1120" as="targetPoint" />
          </mxGeometry>
        </mxCell>
        <mxCell id="eu__VUVs-O8cIbxZYUX1-22" value="&lt;font face=&quot;Times New Roman&quot;&gt;&lt;span style=&quot;font-size: 14px;&quot;&gt;В вагоне нет свободных мест&lt;/span&gt;&lt;/font&gt;" style="ellipse;whiteSpace=wrap;html=1;aspect=fixed;" parent="1" vertex="1">
          <mxGeometry x="650" y="930" width="130" height="130" as="geometry" />
        </mxCell>
        <mxCell id="eu__VUVs-O8cIbxZYUX1-24" value="" style="endArrow=none;html=1;rounded=0;strokeWidth=4;" parent="1" edge="1">
          <mxGeometry width="50" height="50" relative="1" as="geometry">
            <mxPoint x="330" y="1120" as="sourcePoint" />
            <mxPoint x="440" y="1120" as="targetPoint" />
          </mxGeometry>
        </mxCell>
        <mxCell id="eu__VUVs-O8cIbxZYUX1-32" value="" style="endArrow=none;html=1;rounded=0;strokeWidth=4;" parent="1" edge="1">
          <mxGeometry width="50" height="50" relative="1" as="geometry">
            <mxPoint x="550" y="1120" as="sourcePoint" />
            <mxPoint x="660" y="1120" as="targetPoint" />
          </mxGeometry>
        </mxCell>
        <mxCell id="eu__VUVs-O8cIbxZYUX1-38" style="edgeStyle=orthogonalEdgeStyle;rounded=0;orthogonalLoop=1;jettySize=auto;html=1;entryX=0.5;entryY=0;entryDx=0;entryDy=0;" parent="1" edge="1">
          <mxGeometry relative="1" as="geometry">
            <mxPoint x="384.76" y="1180" as="targetPoint" />
            <mxPoint x="384.76" y="1120" as="sourcePoint" />
          </mxGeometry>
        </mxCell>
        <mxCell id="eu__VUVs-O8cIbxZYUX1-49" style="edgeStyle=orthogonalEdgeStyle;rounded=0;orthogonalLoop=1;jettySize=auto;html=1;exitX=1;exitY=1;exitDx=0;exitDy=0;" parent="1" source="eu__VUVs-O8cIbxZYUX1-36" edge="1">
          <mxGeometry relative="1" as="geometry">
            <mxPoint x="470" y="1560" as="targetPoint" />
          </mxGeometry>
        </mxCell>
        <mxCell id="eu__VUVs-O8cIbxZYUX1-36" value="&lt;font face=&quot;Times New Roman&quot;&gt;&lt;span style=&quot;font-size: 14px;&quot;&gt;Субъект сел на свободное место&amp;nbsp;&lt;/span&gt;&lt;/font&gt;" style="ellipse;whiteSpace=wrap;html=1;aspect=fixed;" parent="1" vertex="1">
          <mxGeometry x="320" y="1370" width="130" height="130" as="geometry" />
        </mxCell>
        <mxCell id="eu__VUVs-O8cIbxZYUX1-48" style="edgeStyle=orthogonalEdgeStyle;rounded=0;orthogonalLoop=1;jettySize=auto;html=1;exitX=0;exitY=1;exitDx=0;exitDy=0;" parent="1" source="eu__VUVs-O8cIbxZYUX1-40" edge="1">
          <mxGeometry relative="1" as="geometry">
            <mxPoint x="520" y="1560" as="targetPoint" />
          </mxGeometry>
        </mxCell>
        <mxCell id="eu__VUVs-O8cIbxZYUX1-40" value="&lt;font face=&quot;Times New Roman&quot;&gt;&lt;span style=&quot;font-size: 14px;&quot;&gt;Субъект встал посередине вагона&lt;/span&gt;&lt;/font&gt;" style="ellipse;whiteSpace=wrap;html=1;aspect=fixed;" parent="1" vertex="1">
          <mxGeometry x="540" y="1370" width="130" height="130" as="geometry" />
        </mxCell>
        <mxCell id="eu__VUVs-O8cIbxZYUX1-42" value="" style="rounded=0;whiteSpace=wrap;html=1;fillColor=#000000;" parent="1" vertex="1">
          <mxGeometry x="370" y="1380" width="30" height="30" as="geometry" />
        </mxCell>
        <mxCell id="eu__VUVs-O8cIbxZYUX1-43" value="" style="rounded=0;whiteSpace=wrap;html=1;fillColor=#000000;" parent="1" vertex="1">
          <mxGeometry x="590" y="1380" width="30" height="30" as="geometry" />
        </mxCell>
        <mxCell id="eu__VUVs-O8cIbxZYUX1-53" style="edgeStyle=orthogonalEdgeStyle;rounded=0;orthogonalLoop=1;jettySize=auto;html=1;exitX=0.5;exitY=1;exitDx=0;exitDy=0;entryX=0.5;entryY=0;entryDx=0;entryDy=0;" parent="1" source="eu__VUVs-O8cIbxZYUX1-44" target="eu__VUVs-O8cIbxZYUX1-52" edge="1">
          <mxGeometry relative="1" as="geometry" />
        </mxCell>
        <mxCell id="eu__VUVs-O8cIbxZYUX1-44" value="&lt;font face=&quot;Times New Roman&quot;&gt;&lt;span style=&quot;font-size: 14px;&quot;&gt;Субъект доехал до нужной станции&lt;/span&gt;&lt;/font&gt;" style="ellipse;whiteSpace=wrap;html=1;aspect=fixed;" parent="1" vertex="1">
          <mxGeometry x="430" y="1830" width="130" height="130" as="geometry" />
        </mxCell>
        <mxCell id="eu__VUVs-O8cIbxZYUX1-47" value="" style="endArrow=none;html=1;rounded=0;strokeWidth=4;" parent="1" edge="1">
          <mxGeometry width="50" height="50" relative="1" as="geometry">
            <mxPoint x="440" y="1560" as="sourcePoint" />
            <mxPoint x="550" y="1560" as="targetPoint" />
            <Array as="points" />
          </mxGeometry>
        </mxCell>
        <mxCell id="eu__VUVs-O8cIbxZYUX1-51" value="" style="ellipse;whiteSpace=wrap;html=1;aspect=fixed;fillColor=#000000;" parent="1" vertex="1">
          <mxGeometry x="480" y="1840" width="30" height="30" as="geometry" />
        </mxCell>
        <mxCell id="eu__VUVs-O8cIbxZYUX1-52" value="&lt;font face=&quot;Times New Roman&quot;&gt;&lt;font style=&quot;font-size: 14px;&quot;&gt;&lt;br&gt;Сток&lt;br&gt;(Конец&lt;br&gt;рассмотрения &lt;br&gt;процесса)&lt;/font&gt;&lt;br&gt;&lt;/font&gt;" style="ellipse;whiteSpace=wrap;html=1;aspect=fixed;" parent="1" vertex="1">
          <mxGeometry x="430" y="2020" width="130" height="130" as="geometry" />
        </mxCell>
        <mxCell id="eu__VUVs-O8cIbxZYUX1-54" value="" style="triangle;whiteSpace=wrap;html=1;direction=west;strokeColor=default;gradientColor=none;fillColor=#000000;rotation=90;" parent="1" vertex="1">
          <mxGeometry x="484.665" y="2025.335" width="20" height="29.33" as="geometry" />
        </mxCell>
        <mxCell id="eu__VUVs-O8cIbxZYUX1-57" value="" style="endArrow=none;html=1;rounded=0;strokeWidth=4;" parent="1" edge="1">
          <mxGeometry width="50" height="50" relative="1" as="geometry">
            <mxPoint x="620" y="470" as="sourcePoint" />
            <mxPoint x="730" y="470" as="targetPoint" />
            <Array as="points" />
          </mxGeometry>
        </mxCell>
        <mxCell id="eu__VUVs-O8cIbxZYUX1-61" style="edgeStyle=orthogonalEdgeStyle;rounded=0;orthogonalLoop=1;jettySize=auto;html=1;entryX=0.5;entryY=0;entryDx=0;entryDy=0;" parent="1" edge="1">
          <mxGeometry relative="1" as="geometry">
            <mxPoint x="674.0500000000001" y="539.9999999999999" as="targetPoint" />
            <mxPoint x="674.0500000000001" y="470" as="sourcePoint" />
          </mxGeometry>
        </mxCell>
        <mxCell id="8ZdpIB1KfxX4hMsNmirL-13" style="edgeStyle=orthogonalEdgeStyle;rounded=0;orthogonalLoop=1;jettySize=auto;html=1;exitX=1;exitY=0.5;exitDx=0;exitDy=0;entryX=0;entryY=0.5;entryDx=0;entryDy=0;" edge="1" parent="1" source="eu__VUVs-O8cIbxZYUX1-60" target="8ZdpIB1KfxX4hMsNmirL-12">
          <mxGeometry relative="1" as="geometry" />
        </mxCell>
        <mxCell id="eu__VUVs-O8cIbxZYUX1-60" value="&lt;font face=&quot;Times New Roman&quot;&gt;&lt;span style=&quot;font-size: 14px;&quot;&gt;Субъект ожидает следующий поезд&lt;/span&gt;&lt;/font&gt;" style="ellipse;whiteSpace=wrap;html=1;aspect=fixed;" parent="1" vertex="1">
          <mxGeometry x="610" y="750" width="130" height="130" as="geometry" />
        </mxCell>
        <mxCell id="eu__VUVs-O8cIbxZYUX1-62" value="" style="rounded=0;whiteSpace=wrap;html=1;fillColor=#000000;" parent="1" vertex="1">
          <mxGeometry x="660" y="760" width="30" height="30" as="geometry" />
        </mxCell>
        <mxCell id="eu__VUVs-O8cIbxZYUX1-65" value="" style="ellipse;whiteSpace=wrap;html=1;aspect=fixed;fillColor=#000000;" parent="1" vertex="1">
          <mxGeometry x="747" y="780" width="30" height="30" as="geometry" />
        </mxCell>
        <mxCell id="eu__VUVs-O8cIbxZYUX1-66" value="" style="ellipse;whiteSpace=wrap;html=1;aspect=fixed;fillColor=#000000;" parent="1" vertex="1">
          <mxGeometry x="780" y="780" width="30" height="30" as="geometry" />
        </mxCell>
        <mxCell id="eu__VUVs-O8cIbxZYUX1-67" value="" style="ellipse;whiteSpace=wrap;html=1;aspect=fixed;fillColor=#000000;" parent="1" vertex="1">
          <mxGeometry x="634" y="170" width="30" height="30" as="geometry" />
        </mxCell>
        <mxCell id="eu__VUVs-O8cIbxZYUX1-68" value="" style="ellipse;whiteSpace=wrap;html=1;aspect=fixed;fillColor=#000000;" parent="1" vertex="1">
          <mxGeometry x="667" y="170" width="30" height="30" as="geometry" />
        </mxCell>
        <mxCell id="eu__VUVs-O8cIbxZYUX1-73" style="edgeStyle=orthogonalEdgeStyle;rounded=0;orthogonalLoop=1;jettySize=auto;html=1;exitX=0.5;exitY=1;exitDx=0;exitDy=0;entryX=0.5;entryY=0;entryDx=0;entryDy=0;" parent="1" source="eu__VUVs-O8cIbxZYUX1-69" target="eu__VUVs-O8cIbxZYUX1-71" edge="1">
          <mxGeometry relative="1" as="geometry" />
        </mxCell>
        <mxCell id="eu__VUVs-O8cIbxZYUX1-69" value="" style="ellipse;whiteSpace=wrap;html=1;aspect=fixed;" parent="1" vertex="1">
          <mxGeometry x="475.02" y="2350" width="40" height="40" as="geometry" />
        </mxCell>
        <mxCell id="eu__VUVs-O8cIbxZYUX1-110" style="edgeStyle=orthogonalEdgeStyle;rounded=0;orthogonalLoop=1;jettySize=auto;html=1;exitX=1;exitY=1;exitDx=0;exitDy=0;" parent="1" source="eu__VUVs-O8cIbxZYUX1-70" edge="1">
          <mxGeometry relative="1" as="geometry">
            <mxPoint x="455.02" y="2470" as="targetPoint" />
          </mxGeometry>
        </mxCell>
        <mxCell id="eu__VUVs-O8cIbxZYUX1-70" value="&lt;font face=&quot;Times New Roman&quot;&gt;&lt;br&gt;p1&lt;/font&gt;" style="ellipse;whiteSpace=wrap;html=1;aspect=fixed;" parent="1" vertex="1">
          <mxGeometry x="415.02" y="2410" width="40" height="40" as="geometry" />
        </mxCell>
        <mxCell id="eu__VUVs-O8cIbxZYUX1-109" style="edgeStyle=orthogonalEdgeStyle;rounded=0;orthogonalLoop=1;jettySize=auto;html=1;exitX=0;exitY=1;exitDx=0;exitDy=0;" parent="1" source="eu__VUVs-O8cIbxZYUX1-71" edge="1">
          <mxGeometry relative="1" as="geometry">
            <mxPoint x="475.02" y="2470" as="targetPoint" />
          </mxGeometry>
        </mxCell>
        <mxCell id="eu__VUVs-O8cIbxZYUX1-113" style="edgeStyle=orthogonalEdgeStyle;rounded=0;orthogonalLoop=1;jettySize=auto;html=1;exitX=1;exitY=1;exitDx=0;exitDy=0;" parent="1" source="eu__VUVs-O8cIbxZYUX1-71" edge="1">
          <mxGeometry relative="1" as="geometry">
            <mxPoint x="515.02" y="2470" as="targetPoint" />
          </mxGeometry>
        </mxCell>
        <mxCell id="eu__VUVs-O8cIbxZYUX1-71" value="&lt;font face=&quot;Times New Roman&quot;&gt;&lt;br&gt;s1&lt;/font&gt;" style="ellipse;whiteSpace=wrap;html=1;aspect=fixed;" parent="1" vertex="1">
          <mxGeometry x="475.02" y="2410" width="40" height="40" as="geometry" />
        </mxCell>
        <mxCell id="eu__VUVs-O8cIbxZYUX1-112" style="edgeStyle=orthogonalEdgeStyle;rounded=0;orthogonalLoop=1;jettySize=auto;html=1;exitX=0;exitY=1;exitDx=0;exitDy=0;" parent="1" source="eu__VUVs-O8cIbxZYUX1-72" edge="1">
          <mxGeometry relative="1" as="geometry">
            <mxPoint x="535.02" y="2470" as="targetPoint" />
          </mxGeometry>
        </mxCell>
        <mxCell id="eu__VUVs-O8cIbxZYUX1-72" value="&lt;font face=&quot;Times New Roman&quot;&gt;&lt;br&gt;p1&lt;/font&gt;" style="ellipse;whiteSpace=wrap;html=1;aspect=fixed;" parent="1" vertex="1">
          <mxGeometry x="535.02" y="2410" width="40" height="40" as="geometry" />
        </mxCell>
        <mxCell id="eu__VUVs-O8cIbxZYUX1-82" style="edgeStyle=orthogonalEdgeStyle;rounded=0;orthogonalLoop=1;jettySize=auto;html=1;exitX=0.5;exitY=0;exitDx=0;exitDy=0;entryX=0.5;entryY=0;entryDx=0;entryDy=0;" parent="1" source="eu__VUVs-O8cIbxZYUX1-74" target="eu__VUVs-O8cIbxZYUX1-74" edge="1">
          <mxGeometry relative="1" as="geometry">
            <mxPoint x="465.02" y="2470" as="targetPoint" />
          </mxGeometry>
        </mxCell>
        <mxCell id="eu__VUVs-O8cIbxZYUX1-99" style="edgeStyle=orthogonalEdgeStyle;rounded=0;orthogonalLoop=1;jettySize=auto;html=1;exitX=0.5;exitY=1;exitDx=0;exitDy=0;" parent="1" source="eu__VUVs-O8cIbxZYUX1-74" edge="1">
          <mxGeometry relative="1" as="geometry">
            <mxPoint x="465.02" y="2560" as="targetPoint" />
          </mxGeometry>
        </mxCell>
        <mxCell id="eu__VUVs-O8cIbxZYUX1-111" style="edgeStyle=orthogonalEdgeStyle;rounded=0;orthogonalLoop=1;jettySize=auto;html=1;entryX=0.5;entryY=0;entryDx=0;entryDy=0;" parent="1" target="eu__VUVs-O8cIbxZYUX1-74" edge="1">
          <mxGeometry relative="1" as="geometry">
            <mxPoint x="464.89096774193547" y="2470" as="targetPoint" />
            <mxPoint x="465.02" y="2470" as="sourcePoint" />
          </mxGeometry>
        </mxCell>
        <mxCell id="eu__VUVs-O8cIbxZYUX1-74" value="&lt;br&gt;&lt;font face=&quot;Times New Roman&quot;&gt;e1&lt;/font&gt;" style="ellipse;whiteSpace=wrap;html=1;aspect=fixed;" parent="1" vertex="1">
          <mxGeometry x="445.02" y="2500" width="40" height="40" as="geometry" />
        </mxCell>
        <mxCell id="eu__VUVs-O8cIbxZYUX1-87" style="edgeStyle=orthogonalEdgeStyle;rounded=0;orthogonalLoop=1;jettySize=auto;html=1;exitX=1;exitY=0.5;exitDx=0;exitDy=0;entryX=1;entryY=0;entryDx=0;entryDy=0;" parent="1" source="eu__VUVs-O8cIbxZYUX1-75" target="eu__VUVs-O8cIbxZYUX1-71" edge="1">
          <mxGeometry relative="1" as="geometry">
            <Array as="points">
              <mxPoint x="605.02" y="2520" />
              <mxPoint x="605.02" y="2400" />
              <mxPoint x="509.02" y="2400" />
            </Array>
          </mxGeometry>
        </mxCell>
        <mxCell id="eu__VUVs-O8cIbxZYUX1-75" value="&lt;br&gt;&lt;font face=&quot;Times New Roman&quot;&gt;e2&lt;/font&gt;" style="ellipse;whiteSpace=wrap;html=1;aspect=fixed;" parent="1" vertex="1">
          <mxGeometry x="505.02" y="2500" width="40" height="40" as="geometry" />
        </mxCell>
        <mxCell id="eu__VUVs-O8cIbxZYUX1-76" value="" style="endArrow=none;html=1;rounded=0;" parent="1" edge="1">
          <mxGeometry width="50" height="50" relative="1" as="geometry">
            <mxPoint x="450.02" y="2470" as="sourcePoint" />
            <mxPoint x="480.02" y="2470" as="targetPoint" />
          </mxGeometry>
        </mxCell>
        <mxCell id="eu__VUVs-O8cIbxZYUX1-77" value="" style="endArrow=none;html=1;rounded=0;" parent="1" edge="1">
          <mxGeometry width="50" height="50" relative="1" as="geometry">
            <mxPoint x="510.02" y="2470" as="sourcePoint" />
            <mxPoint x="540.02" y="2470" as="targetPoint" />
          </mxGeometry>
        </mxCell>
        <mxCell id="eu__VUVs-O8cIbxZYUX1-85" style="edgeStyle=orthogonalEdgeStyle;rounded=0;orthogonalLoop=1;jettySize=auto;html=1;entryX=0.5;entryY=0;entryDx=0;entryDy=0;" parent="1" edge="1">
          <mxGeometry relative="1" as="geometry">
            <mxPoint x="524.6800000000001" y="2500" as="targetPoint" />
            <mxPoint x="524.6800000000001" y="2470" as="sourcePoint" />
            <Array as="points">
              <mxPoint x="524.6800000000001" y="2480" />
              <mxPoint x="524.6800000000001" y="2480" />
            </Array>
          </mxGeometry>
        </mxCell>
        <mxCell id="eu__VUVs-O8cIbxZYUX1-88" value="" style="ellipse;whiteSpace=wrap;html=1;aspect=fixed;fillColor=#000000;" parent="1" vertex="1">
          <mxGeometry x="520.02" y="2380" width="10" height="10" as="geometry" />
        </mxCell>
        <mxCell id="eu__VUVs-O8cIbxZYUX1-89" value="" style="ellipse;whiteSpace=wrap;html=1;aspect=fixed;fillColor=#000000;" parent="1" vertex="1">
          <mxGeometry x="530.02" y="2380" width="10" height="10" as="geometry" />
        </mxCell>
        <mxCell id="eu__VUVs-O8cIbxZYUX1-97" value="" style="ellipse;whiteSpace=wrap;html=1;aspect=fixed;fillColor=#000000;" parent="1" vertex="1">
          <mxGeometry x="550.02" y="2500" width="10" height="10" as="geometry" />
        </mxCell>
        <mxCell id="eu__VUVs-O8cIbxZYUX1-98" value="" style="ellipse;whiteSpace=wrap;html=1;aspect=fixed;fillColor=#000000;" parent="1" vertex="1">
          <mxGeometry x="560.02" y="2500" width="10" height="10" as="geometry" />
        </mxCell>
        <mxCell id="eu__VUVs-O8cIbxZYUX1-106" style="edgeStyle=orthogonalEdgeStyle;rounded=0;orthogonalLoop=1;jettySize=auto;html=1;exitX=0;exitY=1;exitDx=0;exitDy=0;" parent="1" source="eu__VUVs-O8cIbxZYUX1-100" edge="1">
          <mxGeometry relative="1" as="geometry">
            <mxPoint x="445.02" y="2630" as="targetPoint" />
          </mxGeometry>
        </mxCell>
        <mxCell id="eu__VUVs-O8cIbxZYUX1-114" style="edgeStyle=orthogonalEdgeStyle;rounded=0;orthogonalLoop=1;jettySize=auto;html=1;exitX=1;exitY=1;exitDx=0;exitDy=0;" parent="1" source="eu__VUVs-O8cIbxZYUX1-100" edge="1">
          <mxGeometry relative="1" as="geometry">
            <mxPoint x="485.02" y="2630" as="targetPoint" />
          </mxGeometry>
        </mxCell>
        <mxCell id="eu__VUVs-O8cIbxZYUX1-100" value="&lt;br&gt;&lt;font face=&quot;Times New Roman&quot;&gt;e3&lt;/font&gt;" style="ellipse;whiteSpace=wrap;html=1;aspect=fixed;" parent="1" vertex="1">
          <mxGeometry x="445.02" y="2560" width="40" height="40" as="geometry" />
        </mxCell>
        <mxCell id="eu__VUVs-O8cIbxZYUX1-115" style="edgeStyle=orthogonalEdgeStyle;rounded=0;orthogonalLoop=1;jettySize=auto;html=1;exitX=0;exitY=1;exitDx=0;exitDy=0;" parent="1" source="eu__VUVs-O8cIbxZYUX1-101" edge="1">
          <mxGeometry relative="1" as="geometry">
            <mxPoint x="505.02" y="2630" as="targetPoint" />
          </mxGeometry>
        </mxCell>
        <mxCell id="eu__VUVs-O8cIbxZYUX1-101" value="&lt;br&gt;&lt;font face=&quot;Times New Roman&quot;&gt;p2&lt;/font&gt;" style="ellipse;whiteSpace=wrap;html=1;aspect=fixed;" parent="1" vertex="1">
          <mxGeometry x="505.02" y="2560" width="40" height="40" as="geometry" />
        </mxCell>
        <mxCell id="eu__VUVs-O8cIbxZYUX1-105" style="edgeStyle=orthogonalEdgeStyle;rounded=0;orthogonalLoop=1;jettySize=auto;html=1;exitX=1;exitY=1;exitDx=0;exitDy=0;" parent="1" source="eu__VUVs-O8cIbxZYUX1-102" edge="1">
          <mxGeometry relative="1" as="geometry">
            <mxPoint x="425.02" y="2630" as="targetPoint" />
          </mxGeometry>
        </mxCell>
        <mxCell id="eu__VUVs-O8cIbxZYUX1-102" value="&lt;br&gt;&lt;font face=&quot;Times New Roman&quot;&gt;p2&lt;/font&gt;" style="ellipse;whiteSpace=wrap;html=1;aspect=fixed;" parent="1" vertex="1">
          <mxGeometry x="385.02" y="2560" width="40" height="40" as="geometry" />
        </mxCell>
        <mxCell id="eu__VUVs-O8cIbxZYUX1-103" value="" style="endArrow=none;html=1;rounded=0;" parent="1" edge="1">
          <mxGeometry width="50" height="50" relative="1" as="geometry">
            <mxPoint x="420.02" y="2630" as="sourcePoint" />
            <mxPoint x="450.02" y="2630" as="targetPoint" />
          </mxGeometry>
        </mxCell>
        <mxCell id="eu__VUVs-O8cIbxZYUX1-104" value="" style="endArrow=none;html=1;rounded=0;" parent="1" edge="1">
          <mxGeometry width="50" height="50" relative="1" as="geometry">
            <mxPoint x="480.02" y="2630" as="sourcePoint" />
            <mxPoint x="510.02" y="2630" as="targetPoint" />
          </mxGeometry>
        </mxCell>
        <mxCell id="eu__VUVs-O8cIbxZYUX1-122" style="edgeStyle=orthogonalEdgeStyle;rounded=0;orthogonalLoop=1;jettySize=auto;html=1;exitX=1;exitY=1;exitDx=0;exitDy=0;" parent="1" source="eu__VUVs-O8cIbxZYUX1-116" edge="1">
          <mxGeometry relative="1" as="geometry">
            <mxPoint x="455.02" y="2720" as="targetPoint" />
          </mxGeometry>
        </mxCell>
        <mxCell id="eu__VUVs-O8cIbxZYUX1-116" value="&lt;br&gt;&lt;font face=&quot;Times New Roman&quot;&gt;e4&lt;/font&gt;" style="ellipse;whiteSpace=wrap;html=1;aspect=fixed;" parent="1" vertex="1">
          <mxGeometry x="415.02" y="2660" width="40" height="40" as="geometry" />
        </mxCell>
        <mxCell id="eu__VUVs-O8cIbxZYUX1-118" style="edgeStyle=orthogonalEdgeStyle;rounded=0;orthogonalLoop=1;jettySize=auto;html=1;entryX=0.5;entryY=0;entryDx=0;entryDy=0;" parent="1" target="eu__VUVs-O8cIbxZYUX1-117" edge="1">
          <mxGeometry relative="1" as="geometry">
            <mxPoint x="494.82851063829787" y="2630" as="targetPoint" />
            <mxPoint x="495.02" y="2630" as="sourcePoint" />
          </mxGeometry>
        </mxCell>
        <mxCell id="eu__VUVs-O8cIbxZYUX1-121" style="edgeStyle=orthogonalEdgeStyle;rounded=0;orthogonalLoop=1;jettySize=auto;html=1;exitX=0;exitY=1;exitDx=0;exitDy=0;" parent="1" source="eu__VUVs-O8cIbxZYUX1-117" edge="1">
          <mxGeometry relative="1" as="geometry">
            <mxPoint x="475.02" y="2720" as="targetPoint" />
          </mxGeometry>
        </mxCell>
        <mxCell id="eu__VUVs-O8cIbxZYUX1-117" value="&lt;br&gt;&lt;font face=&quot;Times New Roman&quot;&gt;e5&lt;/font&gt;" style="ellipse;whiteSpace=wrap;html=1;aspect=fixed;" parent="1" vertex="1">
          <mxGeometry x="475.02" y="2660" width="40" height="40" as="geometry" />
        </mxCell>
        <mxCell id="eu__VUVs-O8cIbxZYUX1-119" style="edgeStyle=orthogonalEdgeStyle;rounded=0;orthogonalLoop=1;jettySize=auto;html=1;entryX=0.5;entryY=0;entryDx=0;entryDy=0;" parent="1" edge="1">
          <mxGeometry relative="1" as="geometry">
            <mxPoint x="434.80999999999995" y="2660" as="targetPoint" />
            <mxPoint x="434.80999999999995" y="2630" as="sourcePoint" />
          </mxGeometry>
        </mxCell>
        <mxCell id="eu__VUVs-O8cIbxZYUX1-120" value="" style="endArrow=none;html=1;rounded=0;" parent="1" edge="1">
          <mxGeometry width="50" height="50" relative="1" as="geometry">
            <mxPoint x="450.02" y="2720" as="sourcePoint" />
            <mxPoint x="480.02" y="2720" as="targetPoint" />
          </mxGeometry>
        </mxCell>
        <mxCell id="eu__VUVs-O8cIbxZYUX1-125" style="edgeStyle=orthogonalEdgeStyle;rounded=0;orthogonalLoop=1;jettySize=auto;html=1;entryX=0.5;entryY=0;entryDx=0;entryDy=0;" parent="1" target="eu__VUVs-O8cIbxZYUX1-123" edge="1">
          <mxGeometry relative="1" as="geometry">
            <mxPoint x="465.30571428571443" y="2720" as="targetPoint" />
            <mxPoint x="465.02" y="2720" as="sourcePoint" />
          </mxGeometry>
        </mxCell>
        <mxCell id="eu__VUVs-O8cIbxZYUX1-126" style="edgeStyle=orthogonalEdgeStyle;rounded=0;orthogonalLoop=1;jettySize=auto;html=1;exitX=0.5;exitY=1;exitDx=0;exitDy=0;entryX=0.5;entryY=0;entryDx=0;entryDy=0;" parent="1" source="eu__VUVs-O8cIbxZYUX1-123" target="eu__VUVs-O8cIbxZYUX1-124" edge="1">
          <mxGeometry relative="1" as="geometry" />
        </mxCell>
        <mxCell id="eu__VUVs-O8cIbxZYUX1-123" value="&lt;br&gt;&lt;font face=&quot;Times New Roman&quot;&gt;s2&lt;/font&gt;" style="ellipse;whiteSpace=wrap;html=1;aspect=fixed;" parent="1" vertex="1">
          <mxGeometry x="445.02" y="2750" width="40" height="40" as="geometry" />
        </mxCell>
        <mxCell id="eu__VUVs-O8cIbxZYUX1-124" value="" style="ellipse;whiteSpace=wrap;html=1;aspect=fixed;" parent="1" vertex="1">
          <mxGeometry x="445.02" y="2810" width="40" height="40" as="geometry" />
        </mxCell>
        <mxCell id="eu__VUVs-O8cIbxZYUX1-127" value="" style="triangle;whiteSpace=wrap;html=1;direction=south;strokeColor=default;gradientColor=none;fillColor=#000000;" parent="1" vertex="1">
          <mxGeometry x="487.85" y="2360" width="14.33" height="10" as="geometry" />
        </mxCell>
        <mxCell id="eu__VUVs-O8cIbxZYUX1-129" value="" style="triangle;whiteSpace=wrap;html=1;direction=south;strokeColor=default;gradientColor=none;fillColor=#000000;rotation=-180;" parent="1" vertex="1">
          <mxGeometry x="457.85" y="2820" width="14.33" height="10" as="geometry" />
        </mxCell>
        <mxCell id="eu__VUVs-O8cIbxZYUX1-130" value="" style="ellipse;whiteSpace=wrap;html=1;aspect=fixed;fillColor=#000000;" parent="1" vertex="1">
          <mxGeometry x="490.02" y="2420" width="10" height="10" as="geometry" />
        </mxCell>
        <mxCell id="eu__VUVs-O8cIbxZYUX1-132" value="" style="rounded=0;whiteSpace=wrap;html=1;fillColor=#000000;" parent="1" vertex="1">
          <mxGeometry x="460.02" y="2510" width="10" height="10" as="geometry" />
        </mxCell>
        <mxCell id="eu__VUVs-O8cIbxZYUX1-134" value="" style="rounded=0;whiteSpace=wrap;html=1;fillColor=#000000;" parent="1" vertex="1">
          <mxGeometry x="520.02" y="2510" width="10" height="10" as="geometry" />
        </mxCell>
        <mxCell id="eu__VUVs-O8cIbxZYUX1-135" value="" style="rounded=0;whiteSpace=wrap;html=1;fillColor=#000000;" parent="1" vertex="1">
          <mxGeometry x="460.02" y="2570" width="10" height="10" as="geometry" />
        </mxCell>
        <mxCell id="eu__VUVs-O8cIbxZYUX1-136" value="" style="rounded=0;whiteSpace=wrap;html=1;fillColor=#000000;" parent="1" vertex="1">
          <mxGeometry x="430.01999999999987" y="2670" width="10" height="10" as="geometry" />
        </mxCell>
        <mxCell id="eu__VUVs-O8cIbxZYUX1-137" value="" style="rounded=0;whiteSpace=wrap;html=1;fillColor=#000000;" parent="1" vertex="1">
          <mxGeometry x="490.01" y="2670" width="10" height="10" as="geometry" />
        </mxCell>
        <mxCell id="eu__VUVs-O8cIbxZYUX1-138" value="" style="ellipse;whiteSpace=wrap;html=1;aspect=fixed;fillColor=#000000;" parent="1" vertex="1">
          <mxGeometry x="460.02" y="2760" width="10" height="10" as="geometry" />
        </mxCell>
        <mxCell id="eu__VUVs-O8cIbxZYUX1-140" value="" style="line;strokeWidth=0.5;html=1;perimeter=backbonePerimeter;points=[];outlineConnect=0;" parent="1" vertex="1">
          <mxGeometry x="547.52" y="2425" width="15" height="10" as="geometry" />
        </mxCell>
        <mxCell id="eu__VUVs-O8cIbxZYUX1-141" value="" style="line;strokeWidth=0.5;html=1;perimeter=backbonePerimeter;points=[];outlineConnect=0;" parent="1" vertex="1">
          <mxGeometry x="517.52" y="2575" width="15" height="10" as="geometry" />
        </mxCell>
        <mxCell id="8ZdpIB1KfxX4hMsNmirL-2" value="" style="ellipse;whiteSpace=wrap;html=1;aspect=fixed;fillColor=#000000;" vertex="1" parent="1">
          <mxGeometry x="320" y="2923" width="30" height="30" as="geometry" />
        </mxCell>
        <mxCell id="8ZdpIB1KfxX4hMsNmirL-3" value="" style="ellipse;whiteSpace=wrap;html=1;aspect=fixed;fillColor=#000000;" vertex="1" parent="1">
          <mxGeometry x="350" y="2923" width="30" height="30" as="geometry" />
        </mxCell>
        <mxCell id="8ZdpIB1KfxX4hMsNmirL-4" value="" style="triangle;whiteSpace=wrap;html=1;direction=west;strokeColor=default;gradientColor=none;fillColor=#000000;rotation=90;" vertex="1" parent="1">
          <mxGeometry x="54.67499999999998" y="2970.005" width="20" height="29.33" as="geometry" />
        </mxCell>
        <mxCell id="8ZdpIB1KfxX4hMsNmirL-5" value="" style="triangle;whiteSpace=wrap;html=1;direction=south;strokeColor=default;gradientColor=none;fillColor=#000000;" vertex="1" parent="1">
          <mxGeometry x="50.00999999999996" y="2933" width="29.33" height="20" as="geometry" />
        </mxCell>
        <mxCell id="8ZdpIB1KfxX4hMsNmirL-6" value="" style="rounded=0;whiteSpace=wrap;html=1;fillColor=#000000;" vertex="1" parent="1">
          <mxGeometry x="330" y="2980" width="30" height="30" as="geometry" />
        </mxCell>
        <mxCell id="8ZdpIB1KfxX4hMsNmirL-10" style="edgeStyle=orthogonalEdgeStyle;rounded=0;orthogonalLoop=1;jettySize=auto;html=1;exitX=0.5;exitY=1;exitDx=0;exitDy=0;entryX=0.5;entryY=0;entryDx=0;entryDy=0;" edge="1" parent="1">
          <mxGeometry relative="1" as="geometry">
            <mxPoint x="675" y="670" as="sourcePoint" />
            <mxPoint x="675" y="750" as="targetPoint" />
          </mxGeometry>
        </mxCell>
        <mxCell id="8ZdpIB1KfxX4hMsNmirL-7" value="&lt;font color=&quot;#ffffff&quot; face=&quot;Times New Roman&quot; style=&quot;font-size: 18px;&quot;&gt;1&lt;/font&gt;" style="ellipse;whiteSpace=wrap;html=1;aspect=fixed;fillColor=#66B2FF;" vertex="1" parent="1">
          <mxGeometry x="430" y="540" width="130" height="130" as="geometry" />
        </mxCell>
        <mxCell id="8ZdpIB1KfxX4hMsNmirL-11" style="edgeStyle=orthogonalEdgeStyle;rounded=0;orthogonalLoop=1;jettySize=auto;html=1;exitX=0.5;exitY=1;exitDx=0;exitDy=0;entryX=0.5;entryY=0;entryDx=0;entryDy=0;" edge="1" parent="1">
          <mxGeometry relative="1" as="geometry">
            <mxPoint x="494.3199999999998" y="670" as="sourcePoint" />
            <mxPoint x="494.3199999999998" y="750" as="targetPoint" />
          </mxGeometry>
        </mxCell>
        <mxCell id="8ZdpIB1KfxX4hMsNmirL-9" value="&lt;font face=&quot;Times New Roman&quot; color=&quot;#ffffff&quot;&gt;&lt;span style=&quot;font-size: 18px;&quot;&gt;2&lt;/span&gt;&lt;/font&gt;" style="ellipse;whiteSpace=wrap;html=1;aspect=fixed;gradientColor=none;fillColor=#66B2FF;fillStyle=auto;" vertex="1" parent="1">
          <mxGeometry x="610" y="540" width="130" height="130" as="geometry" />
        </mxCell>
        <mxCell id="8ZdpIB1KfxX4hMsNmirL-12" value="&lt;font face=&quot;Times New Roman&quot; color=&quot;#ffffff&quot;&gt;&lt;span style=&quot;font-size: 18px;&quot;&gt;3&lt;/span&gt;&lt;/font&gt;" style="ellipse;whiteSpace=wrap;html=1;aspect=fixed;gradientColor=none;fillColor=#66B2FF;fillStyle=auto;" vertex="1" parent="1">
          <mxGeometry x="840" y="750" width="130" height="130" as="geometry" />
        </mxCell>
        <mxCell id="8ZdpIB1KfxX4hMsNmirL-19" style="edgeStyle=orthogonalEdgeStyle;rounded=0;orthogonalLoop=1;jettySize=auto;html=1;exitX=0.5;exitY=1;exitDx=0;exitDy=0;" edge="1" parent="1">
          <mxGeometry relative="1" as="geometry">
            <mxPoint x="384.8" y="1310" as="sourcePoint" />
            <mxPoint x="384.8" y="1370" as="targetPoint" />
          </mxGeometry>
        </mxCell>
        <mxCell id="8ZdpIB1KfxX4hMsNmirL-15" value="&lt;font face=&quot;Times New Roman&quot; color=&quot;#ffffff&quot;&gt;&lt;span style=&quot;font-size: 18px;&quot;&gt;4&lt;/span&gt;&lt;/font&gt;" style="ellipse;whiteSpace=wrap;html=1;aspect=fixed;gradientColor=none;fillColor=#66B2FF;fillStyle=auto;" vertex="1" parent="1">
          <mxGeometry x="320" y="1180" width="130" height="130" as="geometry" />
        </mxCell>
        <mxCell id="8ZdpIB1KfxX4hMsNmirL-20" style="edgeStyle=orthogonalEdgeStyle;rounded=0;orthogonalLoop=1;jettySize=auto;html=1;exitX=0.5;exitY=1;exitDx=0;exitDy=0;entryX=0.5;entryY=0;entryDx=0;entryDy=0;" edge="1" parent="1">
          <mxGeometry relative="1" as="geometry">
            <mxPoint x="604.8" y="1310" as="sourcePoint" />
            <mxPoint x="604.8" y="1370" as="targetPoint" />
          </mxGeometry>
        </mxCell>
        <mxCell id="8ZdpIB1KfxX4hMsNmirL-16" value="&lt;font face=&quot;Times New Roman&quot; color=&quot;#ffffff&quot;&gt;&lt;span style=&quot;font-size: 18px;&quot;&gt;5&lt;/span&gt;&lt;/font&gt;" style="ellipse;whiteSpace=wrap;html=1;aspect=fixed;gradientColor=none;fillColor=#66B2FF;fillStyle=auto;" vertex="1" parent="1">
          <mxGeometry x="540" y="1180" width="130" height="130" as="geometry" />
        </mxCell>
        <mxCell id="8ZdpIB1KfxX4hMsNmirL-18" style="edgeStyle=orthogonalEdgeStyle;rounded=0;orthogonalLoop=1;jettySize=auto;html=1;entryX=0.5;entryY=0;entryDx=0;entryDy=0;" edge="1" parent="1">
          <mxGeometry relative="1" as="geometry">
            <mxPoint x="604.76" y="1180" as="targetPoint" />
            <mxPoint x="604.76" y="1120" as="sourcePoint" />
          </mxGeometry>
        </mxCell>
        <mxCell id="8ZdpIB1KfxX4hMsNmirL-23" style="edgeStyle=orthogonalEdgeStyle;rounded=0;orthogonalLoop=1;jettySize=auto;html=1;exitX=0.5;exitY=1;exitDx=0;exitDy=0;entryX=0.5;entryY=0;entryDx=0;entryDy=0;" edge="1" parent="1">
          <mxGeometry relative="1" as="geometry">
            <mxPoint x="494.2700000000001" y="1760" as="sourcePoint" />
            <mxPoint x="494.61" y="1830" as="targetPoint" />
          </mxGeometry>
        </mxCell>
        <mxCell id="8ZdpIB1KfxX4hMsNmirL-22" value="&lt;font face=&quot;Times New Roman&quot; color=&quot;#ffffff&quot;&gt;&lt;span style=&quot;font-size: 18px;&quot;&gt;6&lt;/span&gt;&lt;/font&gt;" style="ellipse;whiteSpace=wrap;html=1;aspect=fixed;gradientColor=none;fillColor=#66B2FF;fillStyle=auto;" vertex="1" parent="1">
          <mxGeometry x="429.65999999999997" y="1630" width="130" height="130" as="geometry" />
        </mxCell>
        <mxCell id="8ZdpIB1KfxX4hMsNmirL-25" style="edgeStyle=orthogonalEdgeStyle;rounded=0;orthogonalLoop=1;jettySize=auto;html=1;exitX=0;exitY=0.5;exitDx=0;exitDy=0;entryX=1;entryY=0;entryDx=0;entryDy=0;" edge="1" parent="1" source="8ZdpIB1KfxX4hMsNmirL-24" target="eu__VUVs-O8cIbxZYUX1-5">
          <mxGeometry relative="1" as="geometry">
            <Array as="points">
              <mxPoint x="631" y="205" />
            </Array>
          </mxGeometry>
        </mxCell>
        <mxCell id="8ZdpIB1KfxX4hMsNmirL-24" value="&lt;font face=&quot;Times New Roman&quot; color=&quot;#ffffff&quot;&gt;&lt;span style=&quot;font-size: 18px;&quot;&gt;3&lt;/span&gt;&lt;/font&gt;" style="ellipse;whiteSpace=wrap;html=1;aspect=fixed;gradientColor=none;fillColor=#66B2FF;fillStyle=auto;" vertex="1" parent="1">
          <mxGeometry x="840" y="140" width="130" height="130" as="geometry" />
        </mxCell>
        <mxCell id="8ZdpIB1KfxX4hMsNmirL-28" style="edgeStyle=orthogonalEdgeStyle;rounded=0;orthogonalLoop=1;jettySize=auto;html=1;exitX=0.5;exitY=1;exitDx=0;exitDy=0;entryX=0.5;entryY=0;entryDx=0;entryDy=0;" edge="1" parent="1">
          <mxGeometry relative="1" as="geometry">
            <mxPoint x="494.41999999999996" y="1540" as="sourcePoint" />
            <mxPoint x="494.55999999999995" y="1610" as="targetPoint" />
          </mxGeometry>
        </mxCell>
        <mxCell id="8ZdpIB1KfxX4hMsNmirL-29" value="&lt;font face=&quot;Times New Roman&quot;&gt;Начало процесса&lt;/font&gt;" style="text;html=1;align=center;verticalAlign=middle;resizable=0;points=[];autosize=1;strokeColor=none;fillColor=none;" vertex="1" parent="1">
          <mxGeometry x="85" y="2928" width="110" height="30" as="geometry" />
        </mxCell>
        <mxCell id="8ZdpIB1KfxX4hMsNmirL-30" value="&lt;font face=&quot;Times New Roman&quot;&gt;Конец процесса&lt;/font&gt;" style="text;html=1;align=center;verticalAlign=middle;resizable=0;points=[];autosize=1;strokeColor=none;fillColor=none;" vertex="1" parent="1">
          <mxGeometry x="90" y="2970" width="100" height="30" as="geometry" />
        </mxCell>
        <mxCell id="8ZdpIB1KfxX4hMsNmirL-31" value="" style="ellipse;whiteSpace=wrap;html=1;aspect=fixed;fillColor=#000000;" vertex="1" parent="1">
          <mxGeometry x="50.00999999999998" y="3020" width="30" height="30" as="geometry" />
        </mxCell>
        <mxCell id="8ZdpIB1KfxX4hMsNmirL-33" value="&lt;font face=&quot;Times New Roman&quot;&gt;Устойчивое состояние&lt;/font&gt;" style="text;html=1;align=center;verticalAlign=middle;resizable=0;points=[];autosize=1;strokeColor=none;fillColor=none;" vertex="1" parent="1">
          <mxGeometry x="80.01" y="3020" width="140" height="30" as="geometry" />
        </mxCell>
        <mxCell id="8ZdpIB1KfxX4hMsNmirL-34" value="&lt;font face=&quot;Times New Roman&quot;&gt;Измененное состояние&lt;/font&gt;" style="text;html=1;align=center;verticalAlign=middle;resizable=0;points=[];autosize=1;strokeColor=none;fillColor=none;" vertex="1" parent="1">
          <mxGeometry x="387.52" y="2923" width="140" height="30" as="geometry" />
        </mxCell>
        <mxCell id="8ZdpIB1KfxX4hMsNmirL-35" value="&lt;font face=&quot;Times New Roman&quot;&gt;Метод / процесс / действие&lt;/font&gt;" style="text;html=1;align=center;verticalAlign=middle;resizable=0;points=[];autosize=1;strokeColor=none;fillColor=none;" vertex="1" parent="1">
          <mxGeometry x="385.02" y="2980" width="160" height="30" as="geometry" />
        </mxCell>
        <mxCell id="8ZdpIB1KfxX4hMsNmirL-36" value="" style="endArrow=classic;html=1;rounded=0;" edge="1" parent="1">
          <mxGeometry width="50" height="50" relative="1" as="geometry">
            <mxPoint x="60" y="3082.57" as="sourcePoint" />
            <mxPoint x="90" y="3082.57" as="targetPoint" />
          </mxGeometry>
        </mxCell>
        <mxCell id="8ZdpIB1KfxX4hMsNmirL-37" value="&lt;font face=&quot;Times New Roman&quot;&gt;Направление сети Петри&lt;/font&gt;" style="text;html=1;align=center;verticalAlign=middle;resizable=0;points=[];autosize=1;strokeColor=none;fillColor=none;" vertex="1" parent="1">
          <mxGeometry x="95" y="3068" width="150" height="30" as="geometry" />
        </mxCell>
        <mxCell id="8ZdpIB1KfxX4hMsNmirL-39" value="" style="ellipse;whiteSpace=wrap;html=1;aspect=fixed;" vertex="1" parent="1">
          <mxGeometry x="307.52" y="3030" width="80" height="80" as="geometry" />
        </mxCell>
        <mxCell id="8ZdpIB1KfxX4hMsNmirL-40" value="&lt;font face=&quot;Times New Roman&quot;&gt;Событие&lt;/font&gt;" style="text;html=1;align=center;verticalAlign=middle;resizable=0;points=[];autosize=1;strokeColor=none;fillColor=none;" vertex="1" parent="1">
          <mxGeometry x="405.02" y="3055" width="70" height="30" as="geometry" />
        </mxCell>
        <mxCell id="8ZdpIB1KfxX4hMsNmirL-41" value="&lt;font color=&quot;#ffffff&quot; face=&quot;Times New Roman&quot; style=&quot;font-size: 27px;&quot;&gt;n&lt;/font&gt;" style="ellipse;whiteSpace=wrap;html=1;aspect=fixed;fillColor=#66B2FF;" vertex="1" parent="1">
          <mxGeometry x="40" y="3120" width="80" height="80" as="geometry" />
        </mxCell>
        <mxCell id="8ZdpIB1KfxX4hMsNmirL-42" value="&lt;font face=&quot;Times New Roman&quot;&gt;Ссылка&lt;/font&gt;" style="text;html=1;align=center;verticalAlign=middle;resizable=0;points=[];autosize=1;strokeColor=none;fillColor=none;" vertex="1" parent="1">
          <mxGeometry x="130" y="3145" width="60" height="30" as="geometry" />
        </mxCell>
      </root>
    </mxGraphModel>
  </diagram>
</mxfile>
